# xmcd
#
# Track frame offsets:
#	150
#	12815
#	27942
#	42702
#	55807
#	68257
#	82367
#	96095
#	111097
#	124030
#
# Disc length: 1849 seconds
#
# Revision: 3
# Processed by: cddbd v1.5.1PL0 Copyright (c) Steve Scherf et al.
# Submitted via: EasyCDDAExtractor 6.0.0.1
#
DISCID=7e07370a
DTITLE=Sawyer Brown - Greatest Hits
DYEAR=1990
DGENRE=Country
TTITLE0=Step That Step
TTITLE1=Heart Don't Fall Now
TTITLE2=Betty's Bein' Bad
TTITLE3=The Race Is On
TTITLE4=When Love Comes Callin'
TTITLE5=Puttin' The Dark Back Into The Night
TTITLE6=Leona
TTITLE7=Used To Blue
TTITLE8=Out Goin' Cattin'
TTITLE9=Shakin'
EXTD=
EXTT0=
EXTT1=
EXTT2=
EXTT3=
EXTT4=
EXTT5=
EXTT6=
EXTT7=
EXTT8=
EXTT9=
PLAYORDER=
